<?xml version="1.0" standalone="no"?><!DOCTYPE svg PUBLIC "-//W3C//DTD SVG 1.1//EN" "http://www.w3.org/Graphics/SVG/1.1/DTD/svg11.dtd"><svg t="1697983746390" class="icon" viewBox="0 0 1024 1024" version="1.1" xmlns="http://www.w3.org/2000/svg" p-id="1345" xmlns:xlink="http://www.w3.org/1999/xlink" width="128" height="128"><path d="M28.307289 184.98092m95.284392-27.88116l441.596875-129.215631q95.284392-27.881159 123.165552 67.403233l166.490351 568.98394q27.881159 95.284392-67.403232 123.165551l-441.596876 129.215632q-95.284392 27.881159-123.165551-67.403233l-166.490352-568.98394q-27.881159-95.284392 67.403233-123.165552Z" fill="#0F62FE" p-id="1346"></path><path d="M250.977649 232.598338m141.828255 0l460.941828 0q141.828255 0 141.828255 141.828255l0 507.745152q0 141.828255-141.828255 141.828255l-460.941828 0q-141.828255 0-141.828255-141.828255l0-507.745152q0-141.828255 141.828255-141.828255Z" fill="#C1D0FF" fill-opacity=".4" p-id="1347"></path><path d="M462.301748 425.484765m38.293629 0l92.188366 0q38.293629 0 38.293629 38.293628l0 0q0 38.293629-38.293629 38.293629l-92.188366 0q-38.293629 0-38.293629-38.293629l0 0q0-38.293629 38.293629-38.293628Z" fill="#FFFFFF" p-id="1348"></path><path d="M462.301748 592.842105m38.293629 0l245.362881 0q38.293629 0 38.293629 38.293629l0 0q0 38.293629-38.293629 38.293629l-245.362881 0q-38.293629 0-38.293629-38.293629l0 0q0-38.293629 38.293629-38.293629Z" fill="#FFFFFF" p-id="1349"></path><path d="M462.301748 753.108033m38.293629 0l245.362881 0q38.293629 0 38.293629 38.293629l0 0q0 38.293629-38.293629 38.293629l-245.362881 0q-38.293629 0-38.293629-38.293629l0 0q0-38.293629 38.293629-38.293629Z" fill="#FFFFFF" p-id="1350"></path></svg>