<?xml version="1.0" standalone="no"?><!DOCTYPE svg PUBLIC "-//W3C//DTD SVG 1.1//EN" "http://www.w3.org/Graphics/SVG/1.1/DTD/svg11.dtd"><svg t="1697983678249" class="icon" viewBox="0 0 1331 1024" version="1.1" xmlns="http://www.w3.org/2000/svg" p-id="1047" xmlns:xlink="http://www.w3.org/1999/xlink" width="166.375" height="128"><path d="M694.717053 597.563403c-69.675374-35.764567-69.675374-135.358468 0-171.12492L1191.29105 171.539801c64.002829-32.850976 140.097532 13.621274 140.097532 85.563403v509.797363c0 71.942129-76.094703 118.416265-140.097532 85.561518L694.717053 597.563403z" fill="#0F62FE" p-id="1048"></path><path d="M0 0m211.211786 0l631.74954 0q211.211786 0 211.211786 211.211786l0 601.576428q0 211.211786-211.211786 211.211786l-631.74954 0q-211.211786 0-211.211786-211.211786l0-601.576428q0-211.211786 211.211786-211.211786Z" fill="#C1D0FF" fill-opacity=".4" p-id="1049"></path><path d="M759.042357 471.170122c31.430954 18.147241 31.430954 63.512516 0 81.659756l-312.574585 180.4635c-31.430954 18.147241-70.718232-4.535396-70.718232-40.827993V331.534615c0-36.292597 39.287278-58.975234 70.718232-40.827993l312.574585 180.4635z" fill="#FFFFFF" p-id="1050"></path></svg>