<?xml version="1.0" standalone="no"?><!DOCTYPE svg PUBLIC "-//W3C//DTD SVG 1.1//EN" "http://www.w3.org/Graphics/SVG/1.1/DTD/svg11.dtd"><svg t="1698119053281" class="icon" viewBox="0 0 1024 1024" version="1.1" xmlns="http://www.w3.org/2000/svg" p-id="1088" xmlns:xlink="http://www.w3.org/1999/xlink" width="128" height="128"><path d="M518.7072 937.984c88.9344 0 327.3216-17.8176 327.3216-354.048 0-275.5072-219.7504-441.1392-299.1616-492.032a52.224 52.224 0 0 0-56.32 0c-79.4112 50.8928-299.1616 216.5248-299.1616 492.032-0.0512 336.2304 238.336 354.048 327.3216 354.048z" fill="#EFDB9C" p-id="1089"></path><path d="M518.7072 973.824c-234.24 0-363.2128-138.24-363.2128-389.888 0-126.6688 42.9056-245.248 127.488-352.4608A788.48 788.48 0 0 1 471.04 61.7472a88.3712 88.3712 0 0 1 95.0272 0 787.5584 787.5584 0 0 1 188.2112 169.728c84.5824 107.2128 127.488 225.792 127.488 352.4608 0.1024 251.392-128.8704 389.888-363.0592 389.888z m0-854.3232a16.4352 16.4352 0 0 0-8.9088 2.6112c-84.9408 54.4256-282.624 208.384-282.624 461.824 0 211.1488 98.048 318.208 291.5328 318.208s291.4816-107.0592 291.4816-318.208c0-253.44-197.6832-407.3984-282.6752-461.824a16.0768 16.0768 0 0 0-8.8064-2.6112z" fill="#2B3248" p-id="1090"></path><path d="M517.376 83.7632A52.5824 52.5824 0 0 0 490.496 92.16c-74.6496 47.8208-273.2544 197.0176-296.96 443.5456 6.656 115.1488 61.44 151.808 99.072 156.9792 51.6096 7.1168 161.28 1.8432 233.1648-240.2816 41.2672-139.008 15.2064-299.6224-8.3968-368.64z" fill="#FEDAAF" p-id="1091"></path><path d="M314.6752 714.4448a185.088 185.088 0 0 1-24.7296-1.6896c-51.968-7.168-109.8752-57.1904-116.736-176.128a21.2992 21.2992 0 0 1 0-3.1232c24.1664-252.6208 222.1568-405.0432 306.176-458.8032a73.0112 73.0112 0 0 1 37.7344-11.4176 20.48 20.48 0 0 1 19.8656 13.824c26.2144 76.8 50.2272 241.2544 8.7552 380.8256-61.696 207.0016-155.4432 256.512-231.0656 256.512z m-100.5056-178.5856c5.7856 92.9792 45.7216 131.3792 81.3568 136.2944 91.5968 12.6464 162.4576-63.3344 210.7392-225.8432 35.84-120.5248 19.3024-261.12-2.7648-338.2784-0.6656 0.3584-1.3312 0.7168-1.9456 1.1264C422.7584 159.6416 237.312 302.08 214.1696 535.8592z" fill="#2B3248" p-id="1092"></path></svg>